<svg aria-hidden="true" style="position: absolute; width: 0; height: 0; overflow: hidden;" version="1.1" xmlns="http://www.w3.org/2000/svg" xmlns:xlink="http://www.w3.org/1999/xlink">
<defs>
    <symbol id="icon-solutions" fill="none" xmlns="http://www.w3.org/2000/svg">
        <path d="M60.7083 52.875C60.7083 60.7084 50.9167 66.5834 50.9167 72.4584H43.0833C43.0833 66.5834 33.2917 60.7084 33.2917 52.875C33.2917 45.3159 39.4408 39.1667 47 39.1667C54.5592 39.1667 60.7083 45.3159 60.7083 52.875ZM50.9167 76.375H43.0833V82.25H50.9167V76.375ZM74.4167 50.9167C74.4167 57.4967 72.1058 63.4892 68.2283 68.2284L73.79 73.79C79.0383 67.6409 82.25 59.6509 82.25 50.9167C82.25 40.185 77.4325 30.5892 69.8733 24.1267L64.3117 29.6884C70.4608 34.7017 74.4167 42.3784 74.4167 50.9167ZM62.6667 19.5834L47 3.91669V15.6667C27.5342 15.6667 11.75 31.4509 11.75 50.9167C11.75 59.6509 14.9617 67.6409 20.21 73.79L25.7717 68.2284C21.8942 63.4892 19.5833 57.4967 19.5833 50.9167C19.5833 35.7984 31.8817 23.5 47 23.5V35.25L62.6667 19.5834Z" fill="#0085FE" fill-opacity="0.87"/>
    </symbol>

    <svg id="icon-integration" fill="none" xmlns="http://www.w3.org/2000/svg">
        <path d="M46.93 47.5897C50.8148 47.5897 53.9508 44.4538 53.9508 40.569C53.9508 36.6842 50.8148 33.5482 46.93 33.5482C43.0452 33.5482 39.9092 36.6842 39.9092 40.569C39.9092 44.4538 43.0452 47.5897 46.93 47.5897ZM46.93 49.93C42.6239 49.93 38.5987 51.1001 35.1585 53.1361C33.731 53.9552 32.8885 55.5232 32.8885 57.1614V61.6313H60.9715V57.1614C60.9715 55.5232 60.129 53.9786 58.7015 53.1361C55.2613 51.1001 51.2361 49.93 46.93 49.93ZM68.5305 40.92L72.86 39.118C70.0049 32.3079 64.5521 26.8317 57.742 24L55.94 28.3295C61.6034 30.7165 66.1435 35.2566 68.5305 40.92ZM37.92 28.3295L36.118 24C29.3079 26.8551 23.8551 32.3079 21 39.118L25.3295 40.92C27.7165 35.2566 32.2566 30.7165 37.92 28.3295ZM25.3295 58.94L21 60.742C23.8551 67.5521 29.3079 73.0283 36.118 75.86L37.92 71.5305C32.2566 69.1435 27.7165 64.6034 25.3295 58.94ZM55.94 71.5305L57.742 75.86C64.5521 73.0049 70.0283 67.5521 72.86 60.742L68.5305 58.94C66.1435 64.6034 61.6034 69.1435 55.94 71.5305Z" fill="#0085FE"/>
    </svg>

    <symbol id="icon-security" fill="none" xmlns="http://www.w3.org/2000/svg">
        <g clip-path="url(#clip0_1_78)">
            <path d="M64.25 36.3333H61.4584V30.75C61.4584 23.045 55.205 16.7917 47.5 16.7917C39.795 16.7917 33.5417 23.045 33.5417 30.75V36.3333H30.75C27.6792 36.3333 25.1667 38.8458 25.1667 41.9167V69.8333C25.1667 72.9042 27.6792 75.4167 30.75 75.4167H64.25C67.3209 75.4167 69.8334 72.9042 69.8334 69.8333V41.9167C69.8334 38.8458 67.3209 36.3333 64.25 36.3333ZM47.5 61.4583C44.4292 61.4583 41.9167 58.9458 41.9167 55.875C41.9167 52.8042 44.4292 50.2917 47.5 50.2917C50.5709 50.2917 53.0834 52.8042 53.0834 55.875C53.0834 58.9458 50.5709 61.4583 47.5 61.4583ZM56.1542 36.3333H38.8459V30.75C38.8459 25.9762 42.7263 22.0958 47.5 22.0958C52.2738 22.0958 56.1542 25.9762 56.1542 30.75V36.3333Z" fill="#0085FE"/>
        </g>
        <defs>
            <clipPath id="clip0_1_78">
                <rect width="67" height="67" fill="white" transform="translate(14 14)"/>
            </clipPath>
        </defs>
    </symbol>
</defs>
</svg>
